<svg width="122" height="21" viewBox="0 0 122 21" fill="none" xmlns="http://www.w3.org/2000/svg">
<g clip-path="url(#clip0_12_299)">
<path d="M9.96369 0C4.46101 0 0 4.64381 0 10.372C0 16.1001 4.46101 20.7439 9.96369 20.7439C15.4664 20.7439 19.9274 16.1012 19.9274 10.372C19.9274 4.64277 15.4674 0 9.96369 0ZM7.45838 19.6283L6.16843 19.1396L12.4705 1.11562L13.7605 1.60439L7.45838 19.6283Z" fill="white"/>
<path d="M27.1805 0.781738H31.188C36.8569 0.781738 39.9113 4.49543 39.9113 10.295C39.9113 19.1465 34.5598 19.9604 31.5299 19.9604H27.1805V0.781738ZM32.1651 15.3312C34.4377 15.3056 34.8286 12.3553 34.8286 10.5493C34.8286 8.46497 34.4377 5.56363 32.1651 5.56363V15.3312Z" fill="white"/>
<path d="M47.6756 0.451904C52.7313 0.451904 54.713 5.69182 54.713 10.3721C54.713 15.0524 52.7338 20.2923 47.6756 20.2923C42.6174 20.2923 40.6387 15.0524 40.6387 10.3721C40.6387 5.69182 42.6179 0.451904 47.6756 0.451904ZM47.6756 15.4588C49.5572 15.4588 49.6278 11.5669 49.6278 10.3716C49.6278 9.17624 49.5547 5.28434 47.6756 5.28434C45.7965 5.28434 45.7209 9.17624 45.7209 10.3716C45.7209 11.5669 45.7945 15.4593 47.6756 15.4593V15.4588Z" fill="white"/>
<path d="M57.6448 19.9614V5.46306H54.9082V0.781738H65.4886V5.46202H62.6299V19.9614H57.6448Z" fill="white"/>
<path d="M66.0702 13.5007C66.7545 14.5694 67.9518 15.6371 69.2238 15.6371C69.908 15.6371 70.6899 15.2046 70.6899 14.3651C70.7002 13.9693 70.5597 13.5853 70.299 13.2969C70.0792 13.0171 69.7859 12.7878 69.468 12.5591C68.4909 11.7707 67.6355 11.0329 67.0003 10.1173C66.3891 9.22734 65.9991 8.15862 65.9991 6.75953C65.9991 4.52152 67.3677 0.451416 71.6195 0.451416C72.8168 0.451416 74.1118 0.832842 75.1624 1.41801V7.24309C74.5758 6.2765 73.3784 5.18277 72.2301 5.18277C71.644 5.18277 70.9352 5.61526 70.9352 6.35258C70.9352 6.75953 71.1549 7.11595 71.4237 7.4213C71.6925 7.72665 72.059 7.98041 72.3278 8.20968C73.3789 8.97253 74.2094 9.68484 74.7715 10.5498C75.3582 11.4148 75.6755 12.4319 75.6755 13.8816C75.6755 17.4431 73.2808 20.2908 69.8114 20.2908C68.5277 20.2847 67.2575 20.0169 66.0727 19.5024L66.0702 13.5007Z" fill="white"/>
<path d="M77.3759 16.3493L80.4839 0.781738L83.0663 0.785907L79.8192 16.3483C79.7216 17.0861 79.7951 17.7729 80.6256 17.7729C81.0901 17.7729 81.8229 17.4676 82.5317 16.9335L82.1163 19.655C81.2122 20.037 80.4794 20.1641 79.8928 20.1641C77.7914 20.1657 76.9865 18.9948 77.3759 16.3493Z" fill="white"/>
<path d="M92.5771 19.9614L92.2102 17.4941H88.8629L88.4474 19.9614H83.3162L87.7386 0.781738H93.823L97.7329 19.9604L92.5771 19.9614ZM91.626 13.4245L91.0884 8.97302C90.9417 7.77767 90.8441 6.5568 90.722 5.36145H90.6719C90.5253 6.5568 90.4031 7.77767 90.2079 8.97302L89.5236 13.4245H91.626Z" fill="white"/>
<path d="M98.1628 13.5007C98.847 14.5694 100.044 15.6371 101.316 15.6371C102.001 15.6371 102.782 15.2046 102.782 14.3651C102.793 13.9693 102.652 13.5853 102.392 13.2969C102.172 13.0171 101.878 12.7878 101.561 12.5591C100.583 11.7707 99.728 11.0329 99.0928 10.1173C98.4816 9.22734 98.0917 8.15862 98.0917 6.75953C98.0917 4.52152 99.4602 0.451416 103.712 0.451416C104.909 0.451416 106.204 0.832842 107.255 1.41801V7.24309C106.668 6.2765 105.471 5.18277 104.323 5.18277C103.737 5.18277 103.028 5.61526 103.028 6.35258C103.028 6.75953 103.247 7.11595 103.516 7.4213C103.785 7.72665 104.151 7.98041 104.42 8.20968C105.471 8.97253 106.302 9.68484 106.864 10.5498C107.451 11.4148 107.768 12.4319 107.768 13.8816C107.768 17.4431 105.373 20.2908 101.904 20.2908C100.62 20.2847 99.3501 20.0169 98.1653 19.5024L98.1628 13.5007Z" fill="white"/>
<path d="M116.515 19.9614V12.1781H114.145V19.9614H109.161V0.781738H114.145V7.64949H116.515V0.781738H121.5V19.9614H116.515Z" fill="white"/>
</g>
<defs>
<clipPath id="clip0_12_299">
<rect width="121.5" height="20.7439" fill="white"/>
</clipPath>
</defs>
</svg>
