<svg width="282" height="47" viewBox="0 0 282 47" fill="none" xmlns="http://www.w3.org/2000/svg">
<g clip-path="url(#clip0_230_76)">
<path d="M23.1256 0C10.354 0 0 10.5216 0 23.5C0 36.4784 10.354 47 23.1256 47C35.8973 47 46.2512 36.4808 46.2512 23.5C46.2512 10.5192 35.8996 0 23.1256 0ZM17.3108 44.4723L14.3169 43.3649L28.9439 2.52768L31.9379 3.63509L17.3108 44.4723Z" fill="white"/>
<path d="M63.0857 1.77051H72.3871C85.5444 1.77051 92.6337 10.1847 92.6337 23.3249C92.6337 43.3799 80.2129 45.224 73.1806 45.224H63.0857V1.77051ZM74.6549 34.7354C79.9295 34.6776 80.8368 27.993 80.8368 23.901C80.8368 19.1786 79.9295 12.6049 74.6549 12.6049V34.7354Z" fill="white"/>
<path d="M110.654 1.02344C122.389 1.02344 126.988 12.8956 126.988 23.4999C126.988 34.1041 122.394 45.9763 110.654 45.9763C98.9144 45.9763 94.3218 34.1041 94.3218 23.4999C94.3218 12.8956 98.9155 1.02344 110.654 1.02344ZM110.654 35.0249C115.022 35.0249 115.185 26.207 115.185 23.4987C115.185 20.7904 115.016 11.9724 110.654 11.9724C106.293 11.9724 106.118 20.7904 106.118 23.4987C106.118 26.207 106.288 35.0261 110.654 35.0261V35.0249Z" fill="white"/>
<path d="M133.793 45.2263V12.3771H127.441V1.77051H151.998V12.3747H145.363V45.2263H133.793Z" fill="white"/>
<path d="M153.348 30.5884C154.936 33.0098 157.715 35.4289 160.667 35.4289C162.256 35.4289 164.07 34.449 164.07 32.547C164.094 31.6502 163.768 30.7802 163.163 30.1268C162.653 29.4928 161.972 28.9733 161.234 28.4551C158.967 26.6688 156.981 24.9971 155.507 22.9227C154.088 20.9063 153.183 18.4848 153.183 15.3149C153.183 10.2442 156.359 1.02246 166.228 1.02246C169.007 1.02246 172.012 1.88667 174.451 3.21249V16.4105C173.089 14.2205 170.31 11.7424 167.645 11.7424C166.285 11.7424 164.64 12.7223 164.64 14.3928C164.64 15.3149 165.15 16.1224 165.774 16.8143C166.397 17.5061 167.248 18.0811 167.872 18.6005C170.312 20.3289 172.239 21.9428 173.544 23.9026C174.905 25.8624 175.642 28.167 175.642 31.4514C175.642 39.5209 170.084 45.9729 162.031 45.9729C159.052 45.9591 156.104 45.3523 153.354 44.1867L153.348 30.5884Z" fill="white"/>
<path d="M179.589 37.0423L186.802 1.77051L192.796 1.77995L185.259 37.04C185.033 38.7117 185.204 40.2678 187.131 40.2678C188.209 40.2678 189.91 39.5759 191.555 38.3658L190.591 44.5321C188.493 45.3975 186.792 45.6856 185.43 45.6856C180.553 45.6891 178.685 43.0363 179.589 37.0423Z" fill="white"/>
<path d="M214.87 45.2263L214.019 39.6361H206.25L205.285 45.2263H193.376L203.64 1.77051H217.762L226.837 45.224L214.87 45.2263ZM212.663 30.4156L211.415 20.3297C211.075 17.6213 210.848 14.8552 210.565 12.1469H210.448C210.108 14.8552 209.824 17.6213 209.371 20.3297L207.783 30.4156H212.663Z" fill="white"/>
<path d="M227.835 30.5884C229.423 33.0098 232.202 35.4289 235.154 35.4289C236.742 35.4289 238.557 34.449 238.557 32.547C238.581 31.6502 238.255 30.7802 237.65 30.1268C237.14 29.4928 236.459 28.9733 235.721 28.4551C233.453 26.6688 231.468 24.9971 229.993 22.9227C228.575 20.9063 227.67 18.4848 227.67 15.3149C227.67 10.2442 230.846 1.02246 240.714 1.02246C243.493 1.02246 246.499 1.88667 248.938 3.21249V16.4105C247.576 14.2205 244.797 11.7424 242.132 11.7424C240.771 11.7424 239.126 12.7223 239.126 14.3928C239.126 15.3149 239.636 16.1224 240.26 16.8143C240.884 17.5061 241.734 18.0811 242.358 18.6005C244.798 20.3289 246.725 21.9428 248.03 23.9026C249.392 25.8624 250.128 28.167 250.128 31.4514C250.128 39.5209 244.57 45.9729 236.518 45.9729C233.538 45.9591 230.59 45.3523 227.84 44.1867L227.835 30.5884Z" fill="white"/>
<path d="M270.431 45.2263V27.5916H264.93V45.2263H253.36V1.77051H264.93V17.3309H270.431V1.77051H282V45.2263H270.431Z" fill="white"/>
</g>
<defs>
<clipPath id="clip0_230_76">
<rect width="282" height="47" fill="white"/>
</clipPath>
</defs>
</svg>
